PathFileType	4	(X/Y/Z)	C:\Users\Basilio\Documents\Thesis Gigler\squatting_fais\c3dfiles\077\SLS_back_pre5\markers_experimental.trc
DataRate	CameraRate	NumFrames	NumMarkers	Units	OrigDataRate	OrigDataStartFrame	OrigNumFrames
200.000000	200.000000	4	60	mm	200.000000	394	1578
Frame#	Time	FHD			RBHD			C7			T10			CLAV			LSHO			LUUPA			LMUPA			LDUPA			LLEP			LMEP			LRAD			LUL			LRFIN			RSHO			RUPA1			RMUPA			RDUPA			RLEP			RMEP			RRAD			RUL			RUFIN			LASI			RASI			USACR			LSACR			RSACR			LTHI1			LTHI2			LTHI3			LTHI4			LLFC			LMFC			LTIB1			LTIB2			LTIB3			LTIB4			LLMAL			LHEE			LMT1			LMT2			LMT5			RTHI			RTHI2			RTHI3			RTHI4			RLFC			RMFC			RTIB1			RTIB2			RTIB3			RTIB4			RLMAL			RMMAL			RHEE			RMT1			RMT2			RMT5			LBHD			
		X1	Y1	Z1	X2	Y2	Z2	X3	Y3	Z3	X4	Y4	Z4	X5	Y5	Z5	X6	Y6	Z6	X7	Y7	Z7	X8	Y8	Z8	X9	Y9	Z9	X10	Y10	Z10	X11	Y11	Z11	X12	Y12	Z12	X13	Y13	Z13	X14	Y14	Z14	X15	Y15	Z15	X16	Y16	Z16	X17	Y17	Z17	X18	Y18	Z18	X19	Y19	Z19	X20	Y20	Z20	X21	Y21	Z21	X22	Y22	Z22	X23	Y23	Z23	X24	Y24	Z24	X25	Y25	Z25	X26	Y26	Z26	X27	Y27	Z27	X28	Y28	Z28	X29	Y29	Z29	X30	Y30	Z30	X31	Y31	Z31	X32	Y32	Z32	X33	Y33	Z33	X34	Y34	Z34	X35	Y35	Z35	X36	Y36	Z36	X37	Y37	Z37	X38	Y38	Z38	X39	Y39	Z39	X40	Y40	Z40	X41	Y41	Z41	X42	Y42	Z42	X43	Y43	Z43	X44	Y44	Z44	X45	Y45	Z45	X46	Y46	Z46	X47	Y47	Z47	X48	Y48	Z48	X49	Y49	Z49	X50	Y50	Z50	X51	Y51	Z51	X52	Y52	Z52	X53	Y53	Z53	X54	Y54	Z54	X55	Y55	Z55	X56	Y56	Z56	X57	Y57	Z57	X58	Y58	Z58	X59	Y59	Z59	X60	Y60	Z60	

395	1.97	-259.2644042968751	1864.18505859375	-962.0345458984377	-396.5063476562501	1748.2646484375	-875.0255126953127	-443.365692138672	1602.960083007813	-959.3665161132815	-418.1627807617189	1265.119384765625	-943.494812011719	-278.1716308593751	1565.456420898438	-963.646911621094	-326.2461242675782	1602.404052734375	-1135.343383789063	-168.997543334961	1539.557006835938	-1255.095336914063	-137.0277557373047	1575.370483398438	-1239.315185546875	-102.2338790893555	1537.483520507813	-1272.468627929688	-37.54663085937501	1547.652709960938	-1278.341430664063	-28.48981285095216	1480.833984375	-1246.593139648438	268.0741882324219	1584.12548828125	-1200.426635742188	260.5426635742188	1580.159912109375	-1279.69140625	360.7820129394532	1609.036987304688	-1226.016967773438	-300.8275756835938	1602.580688476563	-795.7421875000002	-142.8265686035157	1560.251220703125	-686.6503295898439	-116.1362457275391	1591.380249023438	-715.5787963867189	-73.16321563720705	1563.747680664063	-682.8884887695314	-6.620161533355715	1571.957397460938	-691.7369995117189	-0.7876257896423342	1500.52734375	-721.1610717773439	268.8695983886719	1605.185424804688	-810.9084472656252	285.7203063964844	1617.25048828125	-733.2286376953126	360.6936035156251	1637.432250976563	-818.963562011719	-222.4969329833985	1072.4296875	-1092.461303710938	-198.9236755371094	1104.469970703125	-806.3226318359377	-417.6256713867189	1161.270874023438	-939.0378417968752	-423.4617309570314	1129.27587890625	-965.9092407226565	-420.516082763672	1129.164306640625	-910.4808349609377	-291.3748168945313	857.1057739257815	-1137.530883789063	-261.7700500488282	777.831237792969	-1138.242919921875	-214.1118774414063	779.4002685546877	-1136.320068359375	-290.5360717773438	726.1052246093751	-1120.7724609375	-258.3082580566407	579.9483032226564	-1102.037475585938	-240.2904205322266	556.7258911132814	-971.5496215820315	-245.4194488525391	353.1242065429688	-1038.238891601563	-280.5351562500001	312.9162292480469	-1111.086547851563	-250.9201354980469	307.3169555664063	-1075.464721679688	-266.7854003906251	229.5153808593751	-1047.14990234375	-338.2385559082032	118.0126113891602	-1093.500366210938	-396.4596252441407	84.62004852294923	-1043.704833984375	-187.3949890136719	55.43700027465822	-1022.277954101563	-181.7630920410157	59.72922897338869	-1065.124633789063	-310.2191772460938	127.0034790039063	-1008.721862792969	-283.2243347167969	770.304138183594	-732.1558837890626	-246.4001770019532	715.4401245117189	-724.8193359375001	-212.757064819336	716.0083007812501	-727.6526489257814	-273.4606933593751	637.5385742187501	-736.3047485351564	-276.4425048828126	570.9401855468751	-733.6423339843751	-236.9671783447266	546.6833496093751	-857.4561157226565	-248.9318084716797	426.5328063964845	-744.0111694335939	-329.9748535156251	362.0505981445313	-716.7283935546876	-286.9080200195313	349.2551269531251	-732.7518920898439	-288.3946228027344	304.0017700195313	-772.656433105469	-397.4984130859376	144.146484375	-737.9729614257814	-359.5615844726563	143.70703125	-822.8360595703127	-458.0727844238282	118.4560699462891	-798.0012817382815	-244.0271453857422	58.96909332275392	-768.5420532226565	-251.4191284179688	58.49885177612306	-730.8945922851564	-277.8041992187501	43.91961669921876	-685.2190551757814	-402.0902099609376	1752.744262695313	-1021.027526855469	
396	1.975	-259.4201049804688	1864.400024414063	-963.584167480469	-396.5398559570314	1748.504760742188	-876.5172119140627	-443.3629455566407	1603.064208984375	-961.0002441406252	-418.146209716797	1265.022827148438	-945.4776000976565	-277.9036560058594	1565.473876953125	-965.1545410156252	-325.8339233398438	1602.544799804688	-1136.914916992188	-168.8587493896485	1539.700439453125	-1256.823852539063	-136.9146270751953	1575.3828125	-1241.004150390625	-103.3864440917969	1538.016479492188	-1274.456420898438	-37.48526000976563	1547.860473632813	-1280.030639648438	-28.55171775817872	1481.394653320313	-1248.344116210938	268.3289489746094	1583.712890625	-1201.701538085938	260.8389587402344	1580.041259765625	-1281.381958007813	361.1022033691407	1609.250244140625	-1227.290771484375	-300.6449279785157	1602.297973632813	-797.1898193359377	-143.1461486816407	1559.597412109375	-688.2639160156251	-116.2782516479492	1590.99072265625	-717.0518188476564	-73.24452209472658	1563.440063476563	-684.1415405273439	-6.702985763549806	1571.711547851563	-693.0964355468751	-0.9376022815704348	1500.161865234375	-722.6802978515626	268.7341918945313	1605.6494140625	-812.2020263671877	285.2235717773438	1616.653442382813	-734.7266235351564	360.6097106933594	1637.293579101563	-820.0584716796877	-222.5131988525391	1072.201049804688	-1094.254760742188	-199.0040588378907	1104.665771484375	-807.8963623046877	-417.527801513672	1161.26953125	-940.8873291015627	-423.4205017089845	1129.276489257813	-967.8759765625002	-420.6757202148439	1129.22998046875	-912.3375244140627	-291.5011596679688	856.7712402343752	-1138.689697265625	-262.1206359863282	777.7232666015627	-1139.483642578125	-214.2418212890626	778.967468261719	-1137.623901367188	-290.4942932128907	725.8889160156251	-1121.7880859375	-258.4841613769532	579.7640991210939	-1102.699951171875	-240.4526977539063	556.5759887695314	-972.3045043945315	-245.4596099853516	352.9694213867188	-1038.529052734375	-280.6939392089844	312.7589416503907	-1111.3193359375	-251.0649719238282	307.1599731445313	-1075.635620117188	-266.9413757324219	229.3069000244141	-1047.342163085938	-338.1891479492188	117.8509368896485	-1093.496337890625	-396.4952697753907	84.50343322753908	-1043.692138671875	-187.3539123535157	55.3760108947754	-1022.229553222656	-181.743148803711	59.75029373168947	-1065.131591796875	-310.3642272949219	126.894775390625	-1008.687683105469	-280.5796203613282	770.396911621094	-732.2797241210939	-243.2195434570313	715.7079467773439	-724.7411499023439	-209.2487030029297	716.8988037109376	-727.9989013671876	-269.2621765136719	637.7963256835939	-736.0595703125001	-271.9726257324219	571.3710937500001	-733.0693359375001	-232.7513275146485	547.0048828125001	-856.9761352539065	-245.5715484619141	427.2939453125001	-743.4014892578126	-326.8967590332032	362.7781677246094	-716.1899414062501	-284.0235290527344	349.7878112792969	-732.2731323242189	-285.9956970214844	304.7364196777344	-772.3571777343752	-396.0771484375001	145.9270477294922	-737.6972656250001	-357.6531066894532	144.8813629150391	-822.5007324218752	-456.8064880371095	120.660385131836	-797.6560058593752	-243.8472595214844	58.80486297607423	-768.5886230468752	-251.0738067626954	58.24483108520509	-730.9374389648439	-277.7117614746094	44.05191802978516	-685.2657470703126	-401.6719665527345	1752.375610351563	-1022.298278808594	
397	1.98	-258.7456665039063	1864.290649414063	-964.7232666015627	-396.4229125976564	1748.2431640625	-877.7564697265627	-443.1540527343751	1603.045776367188	-962.5379028320315	-418.1565551757814	1265.070678710938	-947.4885864257815	-277.8745117187501	1565.387084960938	-966.6300048828127	-325.6081848144532	1602.600463867188	-1138.538696289063	-168.6112365722657	1539.892456054688	-1258.61376953125	-136.7149200439453	1575.32666015625	-1242.552734375	-101.7808532714844	1537.452026367188	-1275.394287109375	-37.41380691528321	1547.808349609375	-1281.536254882813	-28.61755371093751	1481.312133789063	-1250.06103515625	268.3712463378907	1583.805297851563	-1203.434936523438	260.9311523437501	1579.954956054688	-1282.5537109375	361.2400512695313	1609.192260742188	-1228.75	-301.0060119628907	1602.139404296875	-798.853942871094	-143.1886138916016	1559.583251953125	-689.5747070312501	-116.5743103027344	1590.659301757813	-718.4680175781251	-73.38657379150392	1563.023803710938	-685.5898437500001	-6.783001422882082	1571.531372070313	-694.4151611328126	-1.022672772407532	1500.004150390625	-724.0528564453126	268.5751037597657	1606.08984375	-813.4715576171877	285.0903320312501	1616.333251953125	-735.8693847656251	360.5959777832032	1637.164184570313	-821.2319946289065	-222.6014251708985	1072.000122070313	-1096.006469726563	-199.3341979980469	1104.70751953125	-809.9517822265627	-417.5242004394532	1161.431274414063	-942.9695434570315	-423.3421020507814	1129.3076171875	-969.8880004882815	-420.9765930175782	1129.105834960938	-914.3768310546877	-291.4781799316407	856.3953857421877	-1139.873779296875	-263.1023864746094	777.7207031250002	-1140.55517578125	-214.4794311523438	778.7242431640627	-1138.745971679688	-290.8995666503907	725.7989501953126	-1122.705322265625	-258.6511535644532	579.4957275390626	-1103.4423828125	-240.7891998291016	556.4492797851564	-973.060241699219	-245.546615600586	352.9159240722657	-1038.74951171875	-280.7352294921876	312.5114440917969	-1111.556030273438	-251.3499755859376	306.5215454101563	-1075.91259765625	-267.0194396972657	229.0671997070313	-1047.358276367188	-338.3021850585938	117.5977935791016	-1093.471923828125	-396.512176513672	84.40000152587892	-1043.638427734375	-187.3834381103516	55.35073471069337	-1022.125671386719	-181.8619384765625	59.81009674072267	-1065.145141601563	-310.4757995605469	126.7135314941407	-1008.602844238281	-277.4974670410157	770.601989746094	-732.5079956054689	-239.3591461181641	716.6604003906251	-725.0827026367189	-205.6636505126954	717.7648925781251	-727.8922729492189	-265.0118103027344	638.1436157226564	-735.7269897460939	-267.2996215820313	571.8165283203126	-732.4697265625001	-228.3233947753907	547.3250732421876	-856.2127075195315	-241.8671112060547	427.9506225585939	-742.9181518554689	-323.8569030761719	364.1054687500001	-715.6846313476564	-280.9102172851563	350.7284545898438	-731.6506958007814	-283.4093933105469	306.0944824218751	-771.9547119140627	-394.7280273437501	147.558822631836	-737.4765625000001	-355.9938049316407	146.3162384033203	-822.1461181640627	-455.652069091797	123.1247863769532	-797.530944824219	-243.5058288574219	58.68579483032228	-768.569030761719	-250.7500305175782	57.90187454223634	-730.9866333007814	-277.6058654785157	44.1539421081543	-685.2781372070314	-401.6469726562501	1752.647338867188	-1023.88671875	
398	1.985	-258.6924438476563	1863.995971679688	-966.2432861328127	-396.0068664550782	1749.182006835938	-879.092956542969	-443.1275024414064	1603.029541015625	-964.1463623046877	-418.1250915527345	1265.077392578125	-949.460144042969	-277.3085327148438	1565.35107421875	-968.0895996093752	-325.3464965820313	1602.651611328125	-1140.001708984375	-168.0884857177735	1540.056030273438	-1260.625732421875	-136.4237976074219	1575.338745117188	-1244.10986328125	-102.0105819702149	1537.7822265625	-1277.263305664063	-37.25824737548829	1548.113891601563	-1283.329223632813	-28.25005912780762	1481.30810546875	-1251.609497070313	268.6673889160157	1583.515991210938	-1204.694702148438	261.2184753417969	1579.88232421875	-1284.337524414063	361.6325378417969	1609.092163085938	-1230.041137695313	-301.0046386718751	1601.8603515625	-800.289978027344	-143.432357788086	1558.963500976563	-690.9154663085939	-116.6159820556641	1590.183349609375	-719.8049926757814	-73.59030914306642	1562.483642578125	-686.9636230468751	-7.081284523010256	1571.218505859375	-695.6759033203126	-1.291681051254273	1499.464599609375	-725.4250488281251	268.4071044921876	1606.160278320313	-814.571472167969	285.3265380859376	1616.463500976563	-736.5475463867189	360.4962158203126	1636.7978515625	-822.3630981445315	-222.8663787841797	1071.817016601563	-1097.845092773438	-199.3557891845704	1105.083129882813	-811.5026855468752	-417.6145324707032	1161.37353515625	-944.920349121094	-423.406951904297	1129.249633789063	-972.0561523437502	-421.0516357421876	1129.341430664063	-916.4656982421877	-291.5376586914063	856.1912841796877	-1141.012451171875	-263.3118591308594	777.2486572265627	-1141.67529296875	-215.5150146484376	778.6548461914065	-1139.989379882813	-291.2460327148438	725.6981201171876	-1123.7646484375	-259.1328125000001	579.3142700195314	-1104.286376953125	-241.3607025146485	556.3673706054689	-973.715759277344	-245.7559356689454	352.9152526855469	-1038.972778320313	-280.8095703125001	312.1786804199219	-1111.947021484375	-251.3913116455079	306.3154907226563	-1076.299072265625	-267.1001586914063	228.9713897705079	-1047.430541992188	-338.2600097656251	117.4000244140625	-1093.386474609375	-396.5662231445314	84.1669387817383	-1043.610473632813	-187.4277648925782	55.28629684448244	-1022.079528808594	-181.9573364257813	58.38152313232423	-1064.590454101563	-310.5878906250001	126.6373977661133	-1008.518737792969	-274.6622924804688	770.7353515625002	-732.4824829101564	-235.5813903808594	717.3099365234376	-724.9212036132814	-201.8963470458985	718.7565307617189	-727.9544677734376	-260.4237365722657	638.6233520507814	-735.3383789062501	-262.2775268554688	572.4423217773439	-731.6752929687501	-223.693099975586	547.2007446289064	-855.3636474609377	-238.0769348144532	428.5283203125001	-742.3036499023439	-320.3552246093751	365.1797180175782	-714.9925537109376	-277.7687377929688	351.5090637207032	-731.2238769531251	-280.7438964843751	307.2539062500001	-771.5025634765627	-392.9897766113282	149.4298706054688	-737.0100708007814	-354.9132690429688	148.1116638183594	-822.0186767578127	-454.0769348144532	125.7089309692383	-797.199890136719	-243.1300201416016	58.55823516845705	-768.6084594726565	-250.3986358642579	57.4819679260254	-731.0488891601564	-277.4947814941407	44.26203155517579	-685.3643798828126	-401.4082641601564	1752.615112304688	-1025.313598632813	
